<?xml version="1.0" encoding="UTF-8" standalone="no" ?>
<!DOCTYPE svg PUBLIC "-//W3C//DTD SVG 1.1//EN" "http://www.w3.org/Graphics/SVG/1.1/DTD/svg11.dtd">
<svg xmlns="http://www.w3.org/2000/svg" xmlns:xlink="http://www.w3.org/1999/xlink" version="1.1" width="815" height="815" viewBox="0 0 1080 1080" xml:space="preserve">
<desc>Created with Fabric.js 6.5.3</desc>
<defs>
</defs>
<g transform="matrix(2.2704 0 0 2.2712 539.1352 540.658)"  >
<circle style="stroke: none; stroke-width: 1; stroke-dasharray: none; stroke-linecap: butt; stroke-dashoffset: 0; stroke-linejoin: miter; stroke-miterlimit: 4; fill: rgb(53,113,128); fill-rule: nonzero; opacity: 1;"  cx="0" cy="0" r="236.966" />
</g>
<g transform="matrix(0.9996 0 0 1 537.1534 569.0443)"  >
<g style=""   >
		<g transform="matrix(1.9126 0 0 1.9126 -0.0062 -0.0085)"  >
<path style="stroke: none; stroke-width: 1; stroke-dasharray: none; stroke-linecap: butt; stroke-dashoffset: 0; stroke-linejoin: miter; stroke-miterlimit: 4; fill: rgb(32,33,33); fill-rule: nonzero; opacity: 1;"  transform=" translate(-240.313, -244.378)" d="M 364.818 375.613 C 364.818 397.91 346.738 415.994 324.437 415.994 L 156.189 415.994 C 133.888 415.994 115.808 397.914 115.808 375.613 L 115.808 113.143 C 115.808 90.846 133.888 72.762 156.189 72.762 L 324.437 72.762 C 346.738 72.762 364.818 90.842 364.818 113.143 L 364.818 375.613 Z" stroke-linecap="round" />
</g>
		<g transform="matrix(1.9126 0 0 1.9126 -153.8018 237.49)"  >
<path style="stroke: none; stroke-width: 1; stroke-dasharray: none; stroke-linecap: butt; stroke-dashoffset: 0; stroke-linejoin: miter; stroke-miterlimit: 4; fill: rgb(78,78,78); fill-rule: nonzero; opacity: 1;"  transform=" translate(-159.9005, -368.5465)" d="M 177.071 380.14 C 177.071 383.216 174.583 385.708 171.507 385.708 L 148.301 385.708 C 145.225 385.708 142.73 383.216 142.73 380.14 L 142.73 356.956 C 142.73 353.877 145.226 351.385 148.301 351.385 L 171.507 351.385 C 174.583 351.385 177.071 353.881 177.071 356.956 L 177.071 380.14 Z" stroke-linecap="round" />
</g>
		<g transform="matrix(1.9126 0 0 1.9126 -77.2098 237.49)"  >
<path style="stroke: none; stroke-width: 1; stroke-dasharray: none; stroke-linecap: butt; stroke-dashoffset: 0; stroke-linejoin: miter; stroke-miterlimit: 4; fill: rgb(78,78,78); fill-rule: nonzero; opacity: 1;"  transform=" translate(-199.9455, -368.5465)" d="M 217.116 380.14 C 217.116 383.216 214.628 385.708 211.556 385.708 L 188.346 385.708 C 185.27 385.708 182.775 383.216 182.775 380.14 L 182.775 356.956 C 182.775 353.877 185.271 351.385 188.346 351.385 L 211.556 351.385 C 214.628 351.385 217.116 353.881 217.116 356.956 L 217.116 380.14 Z" stroke-linecap="round" />
</g>
		<g transform="matrix(1.9126 0 0 1.9126 -0.6196 237.49)"  >
<path style="stroke: none; stroke-width: 1; stroke-dasharray: none; stroke-linecap: butt; stroke-dashoffset: 0; stroke-linejoin: miter; stroke-miterlimit: 4; fill: rgb(78,78,78); fill-rule: nonzero; opacity: 1;"  transform=" translate(-239.9895, -368.5465)" d="M 257.16 380.14 C 257.16 383.216 254.672 385.708 251.6 385.708 L 228.39 385.708 C 225.318 385.708 222.819 383.216 222.819 380.14 L 222.819 356.956 C 222.819 353.877 225.318 351.385 228.39 351.385 L 251.6 351.385 C 254.672 351.385 257.16 353.881 257.16 356.956 L 257.16 380.14 Z" stroke-linecap="round" />
</g>
		<g transform="matrix(1.9126 0 0 1.9126 -153.8018 160.895)"  >
<path style="stroke: none; stroke-width: 1; stroke-dasharray: none; stroke-linecap: butt; stroke-dashoffset: 0; stroke-linejoin: miter; stroke-miterlimit: 4; fill: rgb(78,78,78); fill-rule: nonzero; opacity: 1;"  transform=" translate(-159.9005, -328.5)" d="M 177.071 340.092 C 177.071 343.168 174.583 345.66 171.507 345.66 L 148.301 345.66 C 145.225 345.66 142.73 343.164 142.73 340.092 L 142.73 316.908 C 142.73 313.832 145.226 311.34 148.301 311.34 L 171.507 311.34 C 174.583 311.34 177.071 313.836 177.071 316.908 L 177.071 340.092 Z" stroke-linecap="round" />
</g>
		<g transform="matrix(1.9126 0 0 1.9126 -77.2098 160.895)"  >
<path style="stroke: none; stroke-width: 1; stroke-dasharray: none; stroke-linecap: butt; stroke-dashoffset: 0; stroke-linejoin: miter; stroke-miterlimit: 4; fill: rgb(78,78,78); fill-rule: nonzero; opacity: 1;"  transform=" translate(-199.9455, -328.5)" d="M 217.116 340.092 C 217.116 343.168 214.628 345.66 211.556 345.66 L 188.346 345.66 C 185.27 345.66 182.775 343.164 182.775 340.092 L 182.775 316.908 C 182.775 313.832 185.271 311.34 188.346 311.34 L 211.556 311.34 C 214.628 311.34 217.116 313.836 217.116 316.908 L 217.116 340.092 Z" stroke-linecap="round" />
</g>
		<g transform="matrix(1.9126 0 0 1.9126 -0.6196 160.895)"  >
<path style="stroke: none; stroke-width: 1; stroke-dasharray: none; stroke-linecap: butt; stroke-dashoffset: 0; stroke-linejoin: miter; stroke-miterlimit: 4; fill: rgb(78,78,78); fill-rule: nonzero; opacity: 1;"  transform=" translate(-239.9895, -328.5)" d="M 257.16 340.092 C 257.16 343.168 254.672 345.66 251.6 345.66 L 228.39 345.66 C 225.318 345.66 222.819 343.164 222.819 340.092 L 222.819 316.908 C 222.819 313.832 225.318 311.34 228.39 311.34 L 251.6 311.34 C 254.672 311.34 257.16 313.836 257.16 316.908 L 257.16 340.092 Z" stroke-linecap="round" />
</g>
		<g transform="matrix(1.9126 0 0 1.9126 -153.8018 84.3049)"  >
<path style="stroke: none; stroke-width: 1; stroke-dasharray: none; stroke-linecap: butt; stroke-dashoffset: 0; stroke-linejoin: miter; stroke-miterlimit: 4; fill: rgb(78,78,78); fill-rule: nonzero; opacity: 1;"  transform=" translate(-159.9005, -288.456)" d="M 177.071 300.048 C 177.071 303.124 174.583 305.616 171.507 305.616 L 148.301 305.616 C 145.225 305.616 142.73 303.12 142.73 300.048 L 142.73 276.864 C 142.73 273.788 145.226 271.296 148.301 271.296 L 171.507 271.296 C 174.583 271.296 177.071 273.792 177.071 276.864 L 177.071 300.048 Z" stroke-linecap="round" />
</g>
		<g transform="matrix(1.9126 0 0 1.9126 -77.2098 84.3049)"  >
<path style="stroke: none; stroke-width: 1; stroke-dasharray: none; stroke-linecap: butt; stroke-dashoffset: 0; stroke-linejoin: miter; stroke-miterlimit: 4; fill: rgb(78,78,78); fill-rule: nonzero; opacity: 1;"  transform=" translate(-199.9455, -288.456)" d="M 217.116 300.048 C 217.116 303.124 214.628 305.616 211.556 305.616 L 188.346 305.616 C 185.27 305.616 182.775 303.12 182.775 300.048 L 182.775 276.864 C 182.775 273.788 185.271 271.296 188.346 271.296 L 211.556 271.296 C 214.628 271.296 217.116 273.792 217.116 276.864 L 217.116 300.048 Z" stroke-linecap="round" />
</g>
		<g transform="matrix(1.9126 0 0 1.9126 -0.6196 84.3049)"  >
<path style="stroke: none; stroke-width: 1; stroke-dasharray: none; stroke-linecap: butt; stroke-dashoffset: 0; stroke-linejoin: miter; stroke-miterlimit: 4; fill: rgb(78,78,78); fill-rule: nonzero; opacity: 1;"  transform=" translate(-239.9895, -288.456)" d="M 257.16 300.048 C 257.16 303.124 254.672 305.616 251.6 305.616 L 228.39 305.616 C 225.318 305.616 222.819 303.12 222.819 300.048 L 222.819 276.864 C 222.819 273.788 225.318 271.296 228.39 271.296 L 251.6 271.296 C 254.672 271.296 257.16 273.792 257.16 276.864 L 257.16 300.048 Z" stroke-linecap="round" />
</g>
		<g transform="matrix(1.9126 0 0 1.9126 -153.8018 7.7147)"  >
<path style="stroke: none; stroke-width: 1; stroke-dasharray: none; stroke-linecap: butt; stroke-dashoffset: 0; stroke-linejoin: miter; stroke-miterlimit: 4; fill: rgb(78,78,78); fill-rule: nonzero; opacity: 1;"  transform=" translate(-159.9005, -248.412)" d="M 177.071 260.004 C 177.071 263.08 174.583 265.572 171.507 265.572 L 148.301 265.572 C 145.225 265.572 142.73 263.076 142.73 260.004 L 142.73 236.82 C 142.73 233.744 145.226 231.252 148.301 231.252 L 171.507 231.252 C 174.583 231.252 177.071 233.748 177.071 236.82 L 177.071 260.004 Z" stroke-linecap="round" />
</g>
		<g transform="matrix(1.9126 0 0 1.9126 0.6646 -172.4968)"  >
<path style="stroke: none; stroke-width: 1; stroke-dasharray: none; stroke-linecap: butt; stroke-dashoffset: 0; stroke-linejoin: miter; stroke-miterlimit: 4; fill: rgb(78,78,78); fill-rule: nonzero; opacity: 1;"  transform=" translate(-240.663, -154.192)" d="M 338.596 199.432 C 338.596 202.508 336.104 205.003 333.028 205.003 L 148.301 205.003 C 145.225 205.003 142.73 202.507 142.73 199.432 L 142.73 108.949 C 142.73 105.873 145.226 103.381 148.301 103.381 L 333.028 103.381 C 336.104 103.381 338.596 105.877 338.596 108.949 L 338.596 199.432 Z" stroke-linecap="round" />
</g>
		<g transform="matrix(1.9126 0 0 1.9126 0.6639 -172.4992)"  >
<path style="stroke: none; stroke-width: 1; stroke-dasharray: none; stroke-linecap: butt; stroke-dashoffset: 0; stroke-linejoin: miter; stroke-miterlimit: 4; fill: rgb(116,197,156); fill-rule: nonzero; opacity: 1;"  transform=" translate(-240.6625, -154.1905)" d="M 331.864 191.032 C 331.864 193.894 329.544 196.218 326.678 196.218 L 154.651 196.218 C 151.781 196.218 149.457 193.894 149.457 191.032 L 149.457 117.349 C 149.457 114.487 151.781 112.163 154.651 112.163 L 326.682 112.163 C 329.548 112.163 331.868 114.487 331.868 117.349 L 331.868 191.032 L 331.864 191.032 Z" stroke-linecap="round" />
</g>
		<g transform="matrix(1.9126 0 0 1.9126 -77.2098 7.7147)"  >
<path style="stroke: none; stroke-width: 1; stroke-dasharray: none; stroke-linecap: butt; stroke-dashoffset: 0; stroke-linejoin: miter; stroke-miterlimit: 4; fill: rgb(78,78,78); fill-rule: nonzero; opacity: 1;"  transform=" translate(-199.9455, -248.412)" d="M 217.116 260.004 C 217.116 263.08 214.628 265.572 211.556 265.572 L 188.346 265.572 C 185.27 265.572 182.775 263.076 182.775 260.004 L 182.775 236.82 C 182.775 233.744 185.271 231.252 188.346 231.252 L 211.556 231.252 C 214.628 231.252 217.116 233.748 217.116 236.82 L 217.116 260.004 Z" stroke-linecap="round" />
</g>
		<g transform="matrix(1.9126 0 0 1.9126 -0.6196 7.7147)"  >
<path style="stroke: none; stroke-width: 1; stroke-dasharray: none; stroke-linecap: butt; stroke-dashoffset: 0; stroke-linejoin: miter; stroke-miterlimit: 4; fill: rgb(78,78,78); fill-rule: nonzero; opacity: 1;"  transform=" translate(-239.9895, -248.412)" d="M 257.16 260.004 C 257.16 263.08 254.672 265.572 251.6 265.572 L 228.39 265.572 C 225.318 265.572 222.819 263.076 222.819 260.004 L 222.819 236.82 C 222.819 233.744 225.318 231.252 228.39 231.252 L 251.6 231.252 C 254.672 231.252 257.16 233.748 257.16 236.82 L 257.16 260.004 Z" stroke-linecap="round" />
</g>
		<g transform="matrix(1.9126 0 0 1.9126 115.5566 237.49)"  >
<path style="stroke: none; stroke-width: 1; stroke-dasharray: none; stroke-linecap: butt; stroke-dashoffset: 0; stroke-linejoin: miter; stroke-miterlimit: 4; fill: rgb(231,158,45); fill-rule: nonzero; opacity: 1;"  transform=" translate(-300.731, -368.5465)" d="M 332.358 351.385 L 292.314 351.385 L 288.961 351.385 L 269.107 351.385 C 266.031 351.385 263.532 353.881 263.532 356.956 L 263.532 380.14 C 263.532 383.216 266.031 385.708 269.107 385.708 L 288.965 385.708 L 292.318 385.708 L 332.362 385.708 C 335.434 385.708 337.93 383.216 337.93 380.14 L 337.93 356.956 C 337.926 353.877 335.43 351.385 332.358 351.385 Z" stroke-linecap="round" />
</g>
		<g transform="matrix(1.9126 0 0 1.9126 77.2558 160.895)"  >
<path style="stroke: none; stroke-width: 1; stroke-dasharray: none; stroke-linecap: butt; stroke-dashoffset: 0; stroke-linejoin: miter; stroke-miterlimit: 4; fill: rgb(99,189,110); fill-rule: nonzero; opacity: 1;"  transform=" translate(-280.7055, -328.5)" d="M 297.878 340.092 C 297.878 343.168 295.386 345.66 292.314 345.66 L 269.108 345.66 C 266.032 345.66 263.533 343.164 263.533 340.092 L 263.533 316.908 C 263.533 313.832 266.032 311.34 269.108 311.34 L 292.314 311.34 C 295.386 311.34 297.878 313.836 297.878 316.908 L 297.878 340.092 L 297.878 340.092 Z" stroke-linecap="round" />
</g>
		<g transform="matrix(1.9126 0 0 1.9126 153.8527 160.895)"  >
<path style="stroke: none; stroke-width: 1; stroke-dasharray: none; stroke-linecap: butt; stroke-dashoffset: 0; stroke-linejoin: miter; stroke-miterlimit: 4; fill: rgb(99,189,110); fill-rule: nonzero; opacity: 1;"  transform=" translate(-320.753, -328.5)" d="M 337.926 340.092 C 337.926 343.168 335.43 345.66 332.358 345.66 L 309.148 345.66 C 306.076 345.66 303.58 343.164 303.58 340.092 L 303.58 316.908 C 303.58 313.832 306.076 311.34 309.148 311.34 L 332.358 311.34 C 335.43 311.34 337.926 313.836 337.926 316.908 L 337.926 340.092 Z" stroke-linecap="round" />
</g>
		<g transform="matrix(1.9126 0 0 1.9126 77.2558 84.3049)"  >
<path style="stroke: none; stroke-width: 1; stroke-dasharray: none; stroke-linecap: butt; stroke-dashoffset: 0; stroke-linejoin: miter; stroke-miterlimit: 4; fill: rgb(103,184,203); fill-rule: nonzero; opacity: 1;"  transform=" translate(-280.7055, -288.456)" d="M 297.878 300.048 C 297.878 303.124 295.386 305.616 292.314 305.616 L 269.108 305.616 C 266.032 305.616 263.533 303.12 263.533 300.048 L 263.533 276.864 C 263.533 273.788 266.032 271.296 269.108 271.296 L 292.314 271.296 C 295.386 271.296 297.878 273.792 297.878 276.864 L 297.878 300.048 L 297.878 300.048 Z" stroke-linecap="round" />
</g>
		<g transform="matrix(1.9126 0 0 1.9126 153.8527 84.3049)"  >
<path style="stroke: none; stroke-width: 1; stroke-dasharray: none; stroke-linecap: butt; stroke-dashoffset: 0; stroke-linejoin: miter; stroke-miterlimit: 4; fill: rgb(103,184,203); fill-rule: nonzero; opacity: 1;"  transform=" translate(-320.753, -288.456)" d="M 337.926 300.048 C 337.926 303.124 335.43 305.616 332.358 305.616 L 309.148 305.616 C 306.076 305.616 303.58 303.12 303.58 300.048 L 303.58 276.864 C 303.58 273.788 306.076 271.296 309.148 271.296 L 332.358 271.296 C 335.43 271.296 337.926 273.792 337.926 276.864 L 337.926 300.048 Z" stroke-linecap="round" />
</g>
		<g transform="matrix(1.9126 0 0 1.9126 77.2558 7.7147)"  >
<path style="stroke: none; stroke-width: 1; stroke-dasharray: none; stroke-linecap: butt; stroke-dashoffset: 0; stroke-linejoin: miter; stroke-miterlimit: 4; fill: rgb(232,72,73); fill-rule: nonzero; opacity: 1;"  transform=" translate(-280.7055, -248.412)" d="M 297.878 260.004 C 297.878 263.08 295.386 265.572 292.314 265.572 L 269.108 265.572 C 266.032 265.572 263.533 263.076 263.533 260.004 L 263.533 236.82 C 263.533 233.744 266.032 231.252 269.108 231.252 L 292.314 231.252 C 295.386 231.252 297.878 233.748 297.878 236.82 L 297.878 260.004 L 297.878 260.004 Z" stroke-linecap="round" />
</g>
		<g transform="matrix(1.9126 0 0 1.9126 153.8527 7.7147)"  >
<path style="stroke: none; stroke-width: 1; stroke-dasharray: none; stroke-linecap: butt; stroke-dashoffset: 0; stroke-linejoin: miter; stroke-miterlimit: 4; fill: rgb(232,72,73); fill-rule: nonzero; opacity: 1;"  transform=" translate(-320.753, -248.412)" d="M 337.926 260.004 C 337.926 263.08 335.43 265.572 332.358 265.572 L 309.148 265.572 C 306.076 265.572 303.58 263.076 303.58 260.004 L 303.58 236.82 C 303.58 233.744 306.076 231.252 309.148 231.252 L 332.358 231.252 C 335.43 231.252 337.926 233.748 337.926 236.82 L 337.926 260.004 Z" stroke-linecap="round" />
</g>
		<g transform="matrix(1.9126 0 0 1.9126 -15.9461 -172.4992)"  >
<path style="stroke: none; stroke-width: 1; stroke-dasharray: none; stroke-linecap: butt; stroke-dashoffset: 0; stroke-linejoin: miter; stroke-miterlimit: 4; fill: rgb(0,0,0); fill-rule: nonzero; opacity: 0.15;"  transform=" translate(-231.978, -154.1905)" d="M 149.756 191.032 L 149.756 117.349 C 149.756 114.487 152.083 112.163 154.95 112.163 L 230.141 112.163 L 314.2 196.218 L 154.95 196.218 C 152.084 196.218 149.756 193.894 149.756 191.032 Z" stroke-linecap="round" />
</g>
</g>
</g>
</svg>